<?xml version="1.0" encoding="UTF-8" standalone="no"?>
<svg xmlns="http://www.w3.org/2000/svg" data-name="Layer 1" id="Layer_1" viewBox="0 0 796.67 381.83">
  <defs>
    <style>.cls-1{fill:#20513f;}</style>
  </defs>
  <path class="cls-1" d="M796.67,250.83c-2.13,9-4.41,17.86-9.49,26a69.32,69.32,0,0,1-30.53,26.93c-22.8,10.49-46.79,11.49-71.33,9.56-25.29-2-48.6-10.58-71.73-20-6.56-2.68-6.58-2.75-8.8,4-3.24,9.94-7.56,19.71-9.32,29.91-2.45,14.31-3.32,28.94-4.19,43.47-.44,7.44-4.89,11.79-12.36,11.07-15.83-1.52-31.69-2.89-47.56-3.9-24-1.53-48.11-2.71-72.18-4-3.94-.21-6-2.06-5.45-6,1.77-12.18,4.18-24.12,12.38-34,13.21-15.94,24.91-32.94,33.11-52,2.75-6.39,3.31-13.74,4.66-20.68,1-5.08-1.73-8-6.44-8.88q-14.65-2.81-29.4-5.17c-18.19-2.91-36.67-4.47-53.18-14-8.23-4.73-14.22-11.53-18.89-19.41-5.38-9.06-3.21-27.39,7.47-34.07,5.19-3.25,9.75-7.51,14.79-11C443,151.33,461.85,129,475.55,102.13A190.49,190.49,0,0,1,490.47,78c11.5-16.11,28.2-24.47,46.89-29,38.21-9.24,69.62,3.5,96,31A64.22,64.22,0,0,1,645.4,97c6.1,13.22,17.3,21.64,27.07,31.5,16,16.13,35.07,27.75,54.49,39.16A361.6,361.6,0,0,1,767.7,195.5a80.79,80.79,0,0,1,29,45.36ZM515,256.62c.58,22.78-6.87,42.21-19.63,60-8.42,11.74-16.47,23.75-24.52,35.74a32.82,32.82,0,0,0-4,8.53c-.26.84,1.54,3.33,2.41,3.34,7.14.08,14.3-.07,21.42-.6a6.16,6.16,0,0,0,4.41-3.14c4.76-11.86,9-23.92,13.84-35.73a42,42,0,0,1,7.2-11.18c1.08-1.26,4.08-.86,6.21-1.22.27,1.92,1.17,4,.68,5.73-.86,3-2.66,5.69-3.9,8.59-4.83,11.28-9.64,22.57-14.27,33.93-.37.91.34,3.13,1.13,3.49a10.17,10.17,0,0,0,14.43-6.71,25.09,25.09,0,0,1,1.1-3.82c1.68-3.6,3.16-7.36,5.43-10.56.88-1.26,3.65-1.18,5.55-1.71.37,1.78,1.14,3.59,1,5.32-.13,1.56-1.32,3-1.95,4.55-1.73,4.19-3.4,8.39-5.39,13.3,3.83.35,6.44.66,9.06.83,12.26.76,24.52,1.38,36.77,2.25,6.75.48,7,.65,6.64-6.12-.77-14,.73-27.43,6.44-40.39,4.21-9.56,7.81-19.4,11.76-29.08,1.29-3.15.8-5.27-2.49-6.86-24.63-11.89-50.56-20.24-76.65-28.15A17.13,17.13,0,0,0,515,256.62Zm212.58-5.24c0-9.8-3.7-17.06-11.53-24.37-11.46-10.7-25.5-16.39-40.28-19.7-13.19-3-26.63-4.86-40.27-.09-14.61,5.11-24.72,20.75-22,36,2.73,15.6,11.77,28,20.44,40.6.93,1.34,2.94,2.21,4.62,2.7,12.09,3.56,24.31,6.73,36.34,10.49,9.32,2.91,17.48,1.09,25.62-3.83C716.39,283.57,727.32,271,727.6,251.38ZM546,102.79c.4,11,2.54,18.36,7.84,24.26,10,11.17,22,17.56,37.8,16.07,10.83-1,20.87-3.44,30.33-8.7s16.06-16.1,12.83-26.64c-.87-2.84-.78-6-1.81-8.76-1.34-3.59-2.79-7.4-5.18-10.31-9.47-11.57-21.58-19.29-35.47-25-7.55-3.09-13.67-2.18-19.68,1.87a62.6,62.6,0,0,0-21.38,23.92A137,137,0,0,0,546,102.79Zm-1.3,69.37c-20.06.21-28.31,2.14-40,9.77-9,5.9-17,19.2-12,33.42,3.1,8.86,18.58,19.08,29.13,19.39,16.11.46,28.46-6.9,39.08-17.86,7.13-7.34,9.78-17.57,9-26.7-1-11.16-3.69-18.45-18.27-18C549.31,172.21,547,172.16,544.65,172.16Zm-84.22-21.65,1.22,2.08c7.43-1.42,15.32-1.71,22.2-4.49,18-7.29,24.66-15.45,22.89-32.62a29.83,29.83,0,0,0-11.17-20.75C484.4,114.18,476.34,134.75,460.43,150.51Zm-20.7,52.83c0-10.92-3.69-16.75-8.91-21.59-1-.95-4.24-.88-5.51,0a187.08,187.08,0,0,0-14.74,11.8c-3.91,3.43-4.62,8.15-2.26,13.13a29,29,0,0,0,17.38,15.39c1.6.55,4.95-.13,5.58-1.28C434.86,214.22,437.86,207.31,439.73,203.34Z"/>
  <path class="cls-1" d="M288.46,166.56c3.67,5.58,6.06,10.6,9.69,14.48,11.79,12.63,24.18,24.7,36.05,37.25,9.71,10.26,19.54,20.48,28.36,31.48,18.6,23.18,31.62,49.07,35.77,78.92,1.07,7.72,2.78,15.36,4.41,23,1.5,7-.94,13.22-3.86,19.17-.91,1.85-3.79,3.39-6,3.82-7,1.33-14.11,2.84-21.18,2.9-17.27.16-34.55-.42-51.82-.78-7.62-.16-10.3-3-10.73-10.66-1-17.56-.88-35.3-3.43-52.64a103.2,103.2,0,0,0-24.08-52.34c-10.67-12.42-23.05-23.36-34.54-35.09a100.36,100.36,0,0,1-20.65-29.75c-.84-1.93-1.81-3.8-2.95-6.19-3.18,1.7-5.84,3.38-8.7,4.6-22.25,9.52-43.78,20.81-68.41,23.95C128,221,111.48,217.05,96.86,206.4c-9.22-6.7-9.61-17.31-8.13-27.74,1.16-8.16,5.92-14.57,10.4-21.26,7.45-11.14,14.91-22.41,21-34.31,12.36-24.09,23.2-49,35.9-72.87,7-13.13,16.29-24.87,28.75-34C196.28,7.78,209,4,222.66,2.24c4.62-.59,9.2-1.52,13.82-2a46.12,46.12,0,0,1,28.33,5.84c5.85,3.37,12.46,5.41,18.65,8.22,9.34,4.23,18.42,9.14,28,12.79,8.8,3.36,18.19,5.15,27.16,8.12,16.07,5.34,32.48,10,47.87,16.92,13,5.82,19.94,18,22.26,31.87,1.48,8.9,2.6,18.25,1.53,27.11-2.44,20-13.86,34-32.34,42.05a122.24,122.24,0,0,1-43.49,10q-18.93.88-37.84,2C294.38,165.32,292.2,165.91,288.46,166.56ZM374.1,361.84c-.46-4.61-1.19-9-1.18-13.45,0-1.73,1.68-3.46,2.6-5.19,1.38,1.36,3.32,2.49,4,4.14,1.14,2.72,1.27,5.84,2.19,8.67.67,2.08.06,5.53,4,5,3.81-.46,5.72-2.62,5.1-6.44-.94-5.72-1.47-11.61-3.3-17.05q-6.35-18.85-13.83-37.34c-12.08-29.77-31.78-54.28-54-77-15.34-15.65-31.91-30.38-38.24-52.64-.41-1.45-3.81-3.39-5.24-3-14.08,3.87-28.37,7.33-40.71,15.74-2.36,1.61-2.91,3.2-1.44,5.81a98.15,98.15,0,0,0,20.66,26c10.6,9.32,21.61,18.36,30.95,28.84C294.58,254,303,264.9,309,276.72c11.84,23.37,14.86,48.7,11.6,74.73-.49,3.89-.57,7.83-.83,11.65H358a13.69,13.69,0,0,0,0-2.67c-3.06-14.11-6.09-28.23-9.3-42.3-1.17-5.18-3.13-10.19-4-15.4-.31-1.79,1.53-3.94,2.39-5.92a54.08,54.08,0,0,1,5.37,3.4c.68.54.79,1.79,1.21,2.69,8,17,10.28,35.31,12.58,53.6C366.79,361.55,368.57,363.43,374.1,361.84ZM214.93,72.16l-1.3-.32c.57-11.83-7.78-23.53-18.87-24.93a66.89,66.89,0,0,0-19.66.74c-3,.53-6.62,3.4-8.14,6.19a255.68,255.68,0,0,0-12.42,26.51C149.87,92,155.62,109.21,166.17,116a16.21,16.21,0,0,0,8.29,2.79c13.61,0,28.67-6.59,33.82-20.92C211.26,89.6,212.76,80.76,214.93,72.16Zm43.21,27c.13,2,.11,4,.41,6,1.29,8.41,10.83,16.41,18.13,15.53,21.29-2.56,37-34.71,22.24-53C292.77,60,278.9,59.1,272,66.1,262.91,75.29,257.86,86,258.14,99.11ZM143.77,186c1,3.66,1.63,7.45,3,11,2.13,5.47,8.67,8.72,14.18,6.8,9.09-3.16,18.06-6.7,27-10.34,1.39-.57,3.19-2.53,3.18-3.83-.16-12.08-2.33-22-15-25.55C157.93,159,144.31,171.45,143.77,186ZM381.65,92.47c3.38-.76,6.9-1.15,10.06-2.44,1.41-.58,3.17-3.16,2.92-4.48-1.6-8.41-5.11-16.14-13.3-19.86-8.4-3.82-17.27-6.64-26-9.63-1-.34-3.48.7-3.75,1.58-1.61,5.21-2.76,10.41-.54,16C356,86,365.63,92,381.65,92.47Z"/>
  <path class="cls-1" d="M78.32,375.07c-15,.66-17.67-2.11-20.87-20.21-.6-3.41-.2-7-1.06-10.35-.36-1.38-2.78-3.14-4.3-3.18-8.27-.19-16.57.36-24.84.12-3.39-.1-6.79-1.42-10.1-2.46A38,38,0,0,1,9,335.61,11.84,11.84,0,0,1,4.76,331C-1.39,318.92-1,306.34,2.55,293.67c6.1-22.07,21.48-37.39,37.92-52a65.67,65.67,0,0,1,36.85-16.17,34.82,34.82,0,0,1,14.56,1.63c9.26,3.08,18.57,6.39,27.16,10.93a173.22,173.22,0,0,1,26.64,17.28A96.52,96.52,0,0,1,171.6,286c3.88,7.39,5.45,16.28,6.64,24.7.81,5.75-2.75,10.77-7.66,14.32A57.59,57.59,0,0,1,140,335.89c-2.82.19-5.64.4-8.44.7-6.23.67-6.28,1.11-5.79,7.42.57,7.22.54,14.49.83,21.73.17,3.93-1.8,5.91-5.55,6.2-6.78.53-13.57.94-20.35,1.43C93.23,373.91,85.78,374.5,78.32,375.07Zm20-59.9c1.06,6.51,1.81,7.42,6.94,7.16,11.79-.6,23.59-1.05,35.34-2a75.12,75.12,0,0,0,15.57-3c5.2-1.57,6.93-5,6.58-10.37-.64-9.6-4.89-17.56-11.48-24.22-1.42-1.44-4.43-2-6.64-1.83-4.12.24-8.16,1.6-12.28,1.94-12.56,1-22.85,5.23-27.71,18.07C102.83,305.74,100.47,310.41,98.35,315.17ZM84.21,245.46c0-.66,0-1.49,0-2.32-.18-6.64-1-8.34-7.08-6.82-8.19,2-17.23,4.53-23.44,9.75-10.32,8.67-18.82,19.54-27.78,29.76-4.23,4.83-3.26,6.94,3.14,8.58,16.16,4.15,30.15.19,42.31-11.15C79.43,265.74,85.72,257.53,84.21,245.46ZM91.37,360l1.73-.11a15.29,15.29,0,0,0,1-3.4c.19-2.31-.37-4.78.28-6.92.56-1.86,2.34-3.36,3.59-5,1.32,1.41,3.17,2.61,3.82,4.29.81,2.08.43,4.6,1,6.83.3,1.26,1.14,2.94,2.18,3.38,5.36,2.25,9-.1,9.63-5.89.12-1.16.31-2.31.4-3.46,1-12.09-1.13-14-13.45-12.43-4.27.54-8.55,1-12.84,1.25-5.95.3-11.93.14-17.86.61-1.12.09-3.07,2.3-2.94,3.33a84.66,84.66,0,0,0,3,15.09c1.48,4.68,5.89,2.5,9,2.33.65,0,1.49-3.27,1.59-5.07.16-3-.46-6-.25-8.92a4.15,4.15,0,0,1,2.38-3.1,4.72,4.72,0,0,1,3.81,1.51c.87,1,.94,2.73,1.28,4.16C89.65,352.31,90.5,356.17,91.37,360Z"/>
</svg>
